<svg width="48" height="54" viewBox="0 0 48 54" fill="none" xmlns="http://www.w3.org/2000/svg">
<path d="M3.63867 50.2266C3.89648 50.2266 4.13477 50.1738 4.35352 50.0684C4.57227 49.9629 4.75195 49.8184 4.89258 49.6348C5.0332 49.4473 5.11328 49.2344 5.13281 48.9961H6.16406C6.14453 49.3711 6.01758 49.7207 5.7832 50.0449C5.55273 50.3652 5.25 50.625 4.875 50.8242C4.5 51.0195 4.08789 51.1172 3.63867 51.1172C3.16211 51.1172 2.74609 51.0332 2.39062 50.8652C2.03906 50.6973 1.74609 50.4668 1.51172 50.1738C1.28125 49.8809 1.10742 49.5449 0.990234 49.166C0.876953 48.7832 0.820312 48.3789 0.820312 47.9531V47.707C0.820312 47.2812 0.876953 46.8789 0.990234 46.5C1.10742 46.1172 1.28125 45.7793 1.51172 45.4863C1.74609 45.1934 2.03906 44.9629 2.39062 44.7949C2.74609 44.627 3.16211 44.543 3.63867 44.543C4.13477 44.543 4.56836 44.6445 4.93945 44.8477C5.31055 45.0469 5.60156 45.3203 5.8125 45.668C6.02734 46.0117 6.14453 46.4023 6.16406 46.8398H5.13281C5.11328 46.5781 5.03906 46.3418 4.91016 46.1309C4.78516 45.9199 4.61328 45.752 4.39453 45.627C4.17969 45.498 3.92773 45.4336 3.63867 45.4336C3.30664 45.4336 3.02734 45.5 2.80078 45.6328C2.57812 45.7617 2.40039 45.9375 2.26758 46.1602C2.13867 46.3789 2.04492 46.623 1.98633 46.8926C1.93164 47.1582 1.9043 47.4297 1.9043 47.707V47.9531C1.9043 48.2305 1.93164 48.5039 1.98633 48.7734C2.04102 49.043 2.13281 49.2871 2.26172 49.5059C2.39453 49.7246 2.57227 49.9004 2.79492 50.0332C3.02148 50.1621 3.30273 50.2266 3.63867 50.2266ZM7.0957 47.9004V47.7656C7.0957 47.3086 7.16211 46.8848 7.29492 46.4941C7.42773 46.0996 7.61914 45.7578 7.86914 45.4688C8.11914 45.1758 8.42188 44.9492 8.77734 44.7891C9.13281 44.625 9.53125 44.543 9.97266 44.543C10.418 44.543 10.8184 44.625 11.1738 44.7891C11.5332 44.9492 11.8379 45.1758 12.0879 45.4688C12.3418 45.7578 12.5352 46.0996 12.668 46.4941C12.8008 46.8848 12.8672 47.3086 12.8672 47.7656V47.9004C12.8672 48.3574 12.8008 48.7812 12.668 49.1719C12.5352 49.5625 12.3418 49.9043 12.0879 50.1973C11.8379 50.4863 11.5352 50.7129 11.1797 50.877C10.8281 51.0371 10.4297 51.1172 9.98438 51.1172C9.53906 51.1172 9.13867 51.0371 8.7832 50.877C8.42773 50.7129 8.12305 50.4863 7.86914 50.1973C7.61914 49.9043 7.42773 49.5625 7.29492 49.1719C7.16211 48.7812 7.0957 48.3574 7.0957 47.9004ZM8.17969 47.7656V47.9004C8.17969 48.2168 8.2168 48.5156 8.29102 48.7969C8.36523 49.0742 8.47656 49.3203 8.625 49.5352C8.77734 49.75 8.9668 49.9199 9.19336 50.0449C9.41992 50.166 9.68359 50.2266 9.98438 50.2266C10.2812 50.2266 10.541 50.166 10.7637 50.0449C10.9902 49.9199 11.1777 49.75 11.3262 49.5352C11.4746 49.3203 11.5859 49.0742 11.6602 48.7969C11.7383 48.5156 11.7773 48.2168 11.7773 47.9004V47.7656C11.7773 47.4531 11.7383 47.1582 11.6602 46.8809C11.5859 46.5996 11.4727 46.3516 11.3203 46.1367C11.1719 45.918 10.9844 45.7461 10.7578 45.6211C10.5352 45.4961 10.2734 45.4336 9.97266 45.4336C9.67578 45.4336 9.41406 45.4961 9.1875 45.6211C8.96484 45.7461 8.77734 45.918 8.625 46.1367C8.47656 46.3516 8.36523 46.5996 8.29102 46.8809C8.2168 47.1582 8.17969 47.4531 8.17969 47.7656ZM15.3105 45.6562V51H14.2266V44.6602H15.2812L15.3105 45.6562ZM17.291 44.625L17.2852 45.6328C17.1953 45.6133 17.1094 45.6016 17.0273 45.5977C16.9492 45.5898 16.8594 45.5859 16.7578 45.5859C16.5078 45.5859 16.2871 45.625 16.0957 45.7031C15.9043 45.7812 15.7422 45.8906 15.6094 46.0312C15.4766 46.1719 15.3711 46.3398 15.293 46.5352C15.2188 46.7266 15.1699 46.9375 15.1465 47.168L14.8418 47.3438C14.8418 46.9609 14.8789 46.6016 14.9531 46.2656C15.0312 45.9297 15.1504 45.6328 15.3105 45.375C15.4707 45.1133 15.6738 44.9102 15.9199 44.7656C16.1699 44.6172 16.4668 44.543 16.8105 44.543C16.8887 44.543 16.9785 44.5527 17.0801 44.5723C17.1816 44.5879 17.252 44.6055 17.291 44.625ZM19.377 45.6562V51H18.293V44.6602H19.3477L19.377 45.6562ZM21.3574 44.625L21.3516 45.6328C21.2617 45.6133 21.1758 45.6016 21.0938 45.5977C21.0156 45.5898 20.9258 45.5859 20.8242 45.5859C20.5742 45.5859 20.3535 45.625 20.1621 45.7031C19.9707 45.7812 19.8086 45.8906 19.6758 46.0312C19.543 46.1719 19.4375 46.3398 19.3594 46.5352C19.2852 46.7266 19.2363 46.9375 19.2129 47.168L18.9082 47.3438C18.9082 46.9609 18.9453 46.6016 19.0195 46.2656C19.0977 45.9297 19.2168 45.6328 19.377 45.375C19.5371 45.1133 19.7402 44.9102 19.9863 44.7656C20.2363 44.6172 20.5332 44.543 20.877 44.543C20.9551 44.543 21.0449 44.5527 21.1465 44.5723C21.248 44.5879 21.3184 44.6055 21.3574 44.625ZM23.5371 44.6602V51H22.4473V44.6602H23.5371ZM22.3652 42.9785C22.3652 42.8027 22.418 42.6543 22.5234 42.5332C22.6328 42.4121 22.793 42.3516 23.0039 42.3516C23.2109 42.3516 23.3691 42.4121 23.4785 42.5332C23.5918 42.6543 23.6484 42.8027 23.6484 42.9785C23.6484 43.1465 23.5918 43.291 23.4785 43.4121C23.3691 43.5293 23.2109 43.5879 23.0039 43.5879C22.793 43.5879 22.6328 43.5293 22.5234 43.4121C22.418 43.291 22.3652 43.1465 22.3652 42.9785ZM29.3848 44.6602H30.3691V50.8652C30.3691 51.4238 30.2559 51.9004 30.0293 52.2949C29.8027 52.6895 29.4863 52.9883 29.0801 53.1914C28.6777 53.3984 28.2129 53.502 27.6855 53.502C27.4668 53.502 27.209 53.4668 26.9121 53.3965C26.6191 53.3301 26.3301 53.2148 26.0449 53.0508C25.7637 52.8906 25.5273 52.6738 25.3359 52.4004L25.9043 51.7559C26.1699 52.0762 26.4473 52.2988 26.7363 52.4238C27.0293 52.5488 27.3184 52.6113 27.6035 52.6113C27.9473 52.6113 28.2441 52.5469 28.4941 52.418C28.7441 52.2891 28.9375 52.0977 29.0742 51.8438C29.2148 51.5938 29.2852 51.2852 29.2852 50.918V46.0547L29.3848 44.6602ZM25.0195 47.9004V47.7773C25.0195 47.293 25.0762 46.8535 25.1895 46.459C25.3066 46.0605 25.4727 45.7188 25.6875 45.4336C25.9062 45.1484 26.1699 44.9297 26.4785 44.7773C26.7871 44.6211 27.1348 44.543 27.5215 44.543C27.9199 44.543 28.2676 44.6133 28.5645 44.7539C28.8652 44.8906 29.1191 45.0918 29.3262 45.3574C29.5371 45.6191 29.7031 45.9355 29.8242 46.3066C29.9453 46.6777 30.0293 47.0977 30.0762 47.5664V48.1055C30.0332 48.5703 29.9492 48.9883 29.8242 49.3594C29.7031 49.7305 29.5371 50.0469 29.3262 50.3086C29.1191 50.5703 28.8652 50.7715 28.5645 50.9121C28.2637 51.0488 27.9121 51.1172 27.5098 51.1172C27.1309 51.1172 26.7871 51.0371 26.4785 50.877C26.1738 50.7168 25.9121 50.4922 25.6934 50.2031C25.4746 49.9141 25.3066 49.5742 25.1895 49.1836C25.0762 48.7891 25.0195 48.3613 25.0195 47.9004ZM26.1035 47.7773V47.9004C26.1035 48.2168 26.1348 48.5137 26.1973 48.791C26.2637 49.0684 26.3633 49.3125 26.4961 49.5234C26.6328 49.7344 26.8066 49.9004 27.0176 50.0215C27.2285 50.1387 27.4805 50.1973 27.7734 50.1973C28.1328 50.1973 28.4297 50.1211 28.6641 49.9688C28.8984 49.8164 29.084 49.6152 29.2207 49.3652C29.3613 49.1152 29.4707 48.8438 29.5488 48.5508V47.1387C29.5059 46.9238 29.4395 46.7168 29.3496 46.5176C29.2637 46.3145 29.1504 46.1348 29.0098 45.9785C28.873 45.8184 28.7031 45.6914 28.5 45.5977C28.2969 45.5039 28.0586 45.457 27.7852 45.457C27.4883 45.457 27.2324 45.5195 27.0176 45.6445C26.8066 45.7656 26.6328 45.9336 26.4961 46.1484C26.3633 46.3594 26.2637 46.6055 26.1973 46.8867C26.1348 47.1641 26.1035 47.4609 26.1035 47.7773ZM33.1934 44.6602V51H32.1035V44.6602H33.1934ZM32.0215 42.9785C32.0215 42.8027 32.0742 42.6543 32.1797 42.5332C32.2891 42.4121 32.4492 42.3516 32.6602 42.3516C32.8672 42.3516 33.0254 42.4121 33.1348 42.5332C33.248 42.6543 33.3047 42.8027 33.3047 42.9785C33.3047 43.1465 33.248 43.291 33.1348 43.4121C33.0254 43.5293 32.8672 43.5879 32.6602 43.5879C32.4492 43.5879 32.2891 43.5293 32.1797 43.4121C32.0742 43.291 32.0215 43.1465 32.0215 42.9785ZM38.9297 49.7695V42H40.0195V51H39.0234L38.9297 49.7695ZM34.6641 47.9004V47.7773C34.6641 47.293 34.7227 46.8535 34.8398 46.459C34.9609 46.0605 35.1309 45.7188 35.3496 45.4336C35.5723 45.1484 35.8359 44.9297 36.1406 44.7773C36.4492 44.6211 36.793 44.543 37.1719 44.543C37.5703 44.543 37.918 44.6133 38.2148 44.7539C38.5156 44.8906 38.7695 45.0918 38.9766 45.3574C39.1875 45.6191 39.3535 45.9355 39.4746 46.3066C39.5957 46.6777 39.6797 47.0977 39.7266 47.5664V48.1055C39.6836 48.5703 39.5996 48.9883 39.4746 49.3594C39.3535 49.7305 39.1875 50.0469 38.9766 50.3086C38.7695 50.5703 38.5156 50.7715 38.2148 50.9121C37.9141 51.0488 37.5625 51.1172 37.1602 51.1172C36.7891 51.1172 36.4492 51.0371 36.1406 50.877C35.8359 50.7168 35.5723 50.4922 35.3496 50.2031C35.1309 49.9141 34.9609 49.5742 34.8398 49.1836C34.7227 48.7891 34.6641 48.3613 34.6641 47.9004ZM35.7539 47.7773V47.9004C35.7539 48.2168 35.7852 48.5137 35.8477 48.791C35.9141 49.0684 36.0156 49.3125 36.1523 49.5234C36.2891 49.7344 36.4629 49.9004 36.6738 50.0215C36.8848 50.1387 37.1367 50.1973 37.4297 50.1973C37.7891 50.1973 38.084 50.1211 38.3145 49.9688C38.5488 49.8164 38.7363 49.6152 38.877 49.3652C39.0176 49.1152 39.127 48.8438 39.2051 48.5508V47.1387C39.1582 46.9238 39.0898 46.7168 39 46.5176C38.9141 46.3145 38.8008 46.1348 38.6602 45.9785C38.5234 45.8184 38.3535 45.6914 38.1504 45.5977C37.9512 45.5039 37.7148 45.457 37.4414 45.457C37.1445 45.457 36.8887 45.5195 36.6738 45.6445C36.4629 45.7656 36.2891 45.9336 36.1523 46.1484C36.0156 46.3594 35.9141 46.6055 35.8477 46.8867C35.7852 47.1641 35.7539 47.4609 35.7539 47.7773ZM41.4199 47.9004V47.7656C41.4199 47.3086 41.4863 46.8848 41.6191 46.4941C41.752 46.0996 41.9434 45.7578 42.1934 45.4688C42.4434 45.1758 42.7461 44.9492 43.1016 44.7891C43.457 44.625 43.8555 44.543 44.2969 44.543C44.7422 44.543 45.1426 44.625 45.498 44.7891C45.8574 44.9492 46.1621 45.1758 46.4121 45.4688C46.666 45.7578 46.8594 46.0996 46.9922 46.4941C47.125 46.8848 47.1914 47.3086 47.1914 47.7656V47.9004C47.1914 48.3574 47.125 48.7812 46.9922 49.1719C46.8594 49.5625 46.666 49.9043 46.4121 50.1973C46.1621 50.4863 45.8594 50.7129 45.5039 50.877C45.1523 51.0371 44.7539 51.1172 44.3086 51.1172C43.8633 51.1172 43.4629 51.0371 43.1074 50.877C42.752 50.7129 42.4473 50.4863 42.1934 50.1973C41.9434 49.9043 41.752 49.5625 41.6191 49.1719C41.4863 48.7812 41.4199 48.3574 41.4199 47.9004ZM42.5039 47.7656V47.9004C42.5039 48.2168 42.541 48.5156 42.6152 48.7969C42.6895 49.0742 42.8008 49.3203 42.9492 49.5352C43.1016 49.75 43.291 49.9199 43.5176 50.0449C43.7441 50.166 44.0078 50.2266 44.3086 50.2266C44.6055 50.2266 44.8652 50.166 45.0879 50.0449C45.3145 49.9199 45.502 49.75 45.6504 49.5352C45.7988 49.3203 45.9102 49.0742 45.9844 48.7969C46.0625 48.5156 46.1016 48.2168 46.1016 47.9004V47.7656C46.1016 47.4531 46.0625 47.1582 45.9844 46.8809C45.9102 46.5996 45.7969 46.3516 45.6445 46.1367C45.4961 45.918 45.3086 45.7461 45.082 45.6211C44.8594 45.4961 44.5977 45.4336 44.2969 45.4336C44 45.4336 43.7383 45.4961 43.5117 45.6211C43.2891 45.7461 43.1016 45.918 42.9492 46.1367C42.8008 46.3516 42.6895 46.5996 42.6152 46.8809C42.541 47.1582 42.5039 47.4531 42.5039 47.7656Z" fill="#046402"/>
<path opacity="0.5" d="M23 40C34.046 40 43 31.046 43 20C43 8.954 34.046 0 23 0C11.954 0 3 8.954 3 20C3 31.046 11.954 40 23 40Z" fill="#01592A"/>
<path d="M15.794 27.106C15.9114 26.9476 16.059 26.814 16.2281 26.7127C16.3972 26.6114 16.5847 26.5445 16.7797 26.5157C16.9748 26.4869 17.1736 26.4968 17.3648 26.5449C17.556 26.593 17.7358 26.6783 17.894 26.796C19.35 27.876 21.108 28.5 23 28.5C24.892 28.5 26.65 27.874 28.106 26.796C28.2637 26.6733 28.4444 26.5833 28.6373 26.5314C28.8303 26.4794 29.0317 26.4666 29.2297 26.4935C29.4277 26.5205 29.6183 26.5868 29.7903 26.6884C29.9624 26.7901 30.1124 26.9251 30.2315 27.0856C30.3506 27.246 30.4365 27.4286 30.4841 27.6227C30.5317 27.8168 30.54 28.0185 30.5085 28.2158C30.4771 28.4132 30.4065 28.6022 30.301 28.7719C30.1955 28.9416 30.0571 29.0885 29.894 29.204C27.9035 30.6922 25.4854 31.4976 23 31.5C20.5146 31.4976 18.0965 30.6922 16.106 29.204C15.7865 28.9671 15.5741 28.613 15.5156 28.2196C15.4571 27.8262 15.5572 27.4256 15.794 27.106ZM29 20C30.104 20 31 18.656 31 17C31 15.344 30.104 14 29 14C27.896 14 27 15.344 27 17C27 18.656 27.896 20 29 20ZM17 20C18.104 20 19 18.656 19 17C19 15.344 18.104 14 17 14C15.896 14 15 15.344 15 17C15 18.656 15.896 20 17 20Z" fill="#01592A"/>
</svg>
