<svg width="51" height="56" viewBox="0 0 51 56" fill="none" xmlns="http://www.w3.org/2000/svg">
<path opacity="0.5" d="M26 40C37.046 40 46 31.046 46 20C46 8.954 37.046 0 26 0C14.954 0 6 8.954 6 20C6 31.046 14.954 40 26 40Z" fill="#840000"/>
<path d="M18.794 30.894C18.9114 31.0524 19.059 31.186 19.2281 31.2873C19.3972 31.3886 19.5847 31.4556 19.7797 31.4844C19.9748 31.5132 20.1736 31.5032 20.3648 31.4551C20.556 31.407 20.7358 31.3217 20.894 31.204C22.3676 30.1001 24.1587 29.5023 26 29.5C27.8412 29.5028 29.6322 30.1005 31.106 31.204C31.2637 31.3268 31.4443 31.4167 31.6373 31.4687C31.8303 31.5206 32.0317 31.5335 32.2297 31.5065C32.4277 31.4795 32.6183 31.4133 32.7903 31.3116C32.9624 31.2099 33.1124 31.0749 33.2315 30.9145C33.3506 30.754 33.4365 30.5714 33.4841 30.3773C33.5316 30.1832 33.54 29.9816 33.5085 29.7842C33.4771 29.5869 33.4065 29.3978 33.301 29.2281C33.1955 29.0584 33.0571 28.9115 32.894 28.796C30.9035 27.3078 28.4854 26.5025 26 26.5C23.5146 26.5025 21.0965 27.3078 19.106 28.796C18.7865 29.0329 18.5741 29.387 18.5156 29.7804C18.4571 30.1739 18.5572 30.5744 18.794 30.894ZM32 20C33.104 20 34 18.656 34 17C34 15.344 33.104 14 32 14C30.896 14 30 15.344 30 17C30 18.656 30.896 20 32 20ZM20 20C21.104 20 22 18.656 22 17C22 15.344 21.104 14 20 14C18.896 14 18 15.344 18 17C18 18.656 18.896 20 20 20Z" fill="#840000"/>
<path d="M2.1803 47.0456V54.6042H1.09045V45.8268H2.08655L2.1803 47.0456ZM6.45178 48.944V49.067C6.45178 49.528 6.39709 49.9557 6.28772 50.3503C6.17834 50.7409 6.01819 51.0807 5.80725 51.3698C5.60022 51.6588 5.34436 51.8835 5.03967 52.0436C4.73499 52.2038 4.38538 52.2838 3.99084 52.2838C3.5885 52.2838 3.23303 52.2174 2.92444 52.0846C2.61584 51.9518 2.35413 51.7585 2.13928 51.5045C1.92444 51.2506 1.75256 50.946 1.62366 50.5905C1.49866 50.235 1.41272 49.8346 1.36584 49.3893V48.7331C1.41272 48.2643 1.50061 47.8444 1.62952 47.4733C1.75842 47.1022 1.92834 46.7858 2.13928 46.5241C2.35413 46.2585 2.61389 46.0573 2.91858 45.9206C3.22327 45.7799 3.57483 45.7096 3.97327 45.7096C4.3717 45.7096 4.72522 45.7878 5.03381 45.944C5.34241 46.0963 5.60217 46.3151 5.81311 46.6003C6.02405 46.8854 6.18225 47.2272 6.28772 47.6256C6.39709 48.0202 6.45178 48.4596 6.45178 48.944ZM5.36194 49.067V48.944C5.36194 48.6276 5.32874 48.3307 5.26233 48.0534C5.19592 47.7721 5.09241 47.526 4.95178 47.3151C4.81506 47.1003 4.63928 46.9323 4.42444 46.8112C4.20959 46.6862 3.95374 46.6237 3.65686 46.6237C3.38342 46.6237 3.14514 46.6706 2.94202 46.7643C2.7428 46.8581 2.57288 46.985 2.43225 47.1452C2.29163 47.3014 2.17639 47.4811 2.08655 47.6842C2.00061 47.8835 1.93616 48.0905 1.89319 48.3053V49.8229C1.97131 50.0963 2.08069 50.3542 2.22131 50.5963C2.36194 50.8346 2.54944 51.028 2.78381 51.1764C3.01819 51.321 3.31311 51.3932 3.66858 51.3932C3.96155 51.3932 4.2135 51.3327 4.42444 51.2116C4.63928 51.0866 4.81506 50.9167 4.95178 50.7018C5.09241 50.487 5.19592 50.2409 5.26233 49.9635C5.32874 49.6823 5.36194 49.3835 5.36194 49.067ZM10.4655 52.2838C10.024 52.2838 9.62366 52.2096 9.26428 52.0612C8.90881 51.9088 8.60217 51.696 8.34436 51.4225C8.09045 51.1491 7.89514 50.8249 7.75842 50.4499C7.6217 50.0749 7.55334 49.6647 7.55334 49.2194V48.9733C7.55334 48.4577 7.62952 47.9987 7.78186 47.5963C7.9342 47.1901 8.14124 46.8463 8.40295 46.5651C8.66467 46.2838 8.96155 46.071 9.29358 45.9264C9.62561 45.7819 9.96936 45.7096 10.3248 45.7096C10.778 45.7096 11.1686 45.7878 11.4967 45.944C11.8287 46.1003 12.1002 46.319 12.3112 46.6003C12.5221 46.8776 12.6783 47.2057 12.7799 47.5846C12.8815 47.9596 12.9323 48.3698 12.9323 48.8151V49.3014H8.19788V48.4167H11.8483V48.3346C11.8326 48.0534 11.774 47.7799 11.6725 47.5143C11.5748 47.2487 11.4186 47.0299 11.2037 46.8581C10.9889 46.6862 10.6959 46.6003 10.3248 46.6003C10.0787 46.6003 9.85217 46.653 9.64514 46.7585C9.43811 46.86 9.26038 47.0124 9.11194 47.2155C8.9635 47.4186 8.84827 47.6667 8.76624 47.9596C8.6842 48.2526 8.64319 48.5905 8.64319 48.9733V49.2194C8.64319 49.5202 8.6842 49.8034 8.76624 50.069C8.85217 50.3307 8.97522 50.5612 9.13538 50.7604C9.29944 50.9596 9.4967 51.1159 9.72717 51.2292C9.96155 51.3424 10.2272 51.3991 10.524 51.3991C10.9069 51.3991 11.2311 51.321 11.4967 51.1647C11.7623 51.0085 11.9948 50.7995 12.194 50.5378L12.8502 51.0592C12.7135 51.2663 12.5397 51.4635 12.3287 51.651C12.1178 51.8385 11.858 51.9909 11.5494 52.1081C11.2448 52.2253 10.8834 52.2838 10.4655 52.2838ZM15.2819 47.1803V52.1667H14.1979V45.8268H15.2233L15.2819 47.1803ZM15.024 48.7565L14.5729 48.7389C14.5768 48.3053 14.6412 47.9049 14.7662 47.5378C14.8912 47.1667 15.067 46.8444 15.2936 46.571C15.5201 46.2975 15.7897 46.0866 16.1022 45.9381C16.4186 45.7858 16.7682 45.7096 17.151 45.7096C17.4635 45.7096 17.7448 45.7526 17.9948 45.8385C18.2448 45.9206 18.4576 46.0534 18.6334 46.237C18.8131 46.4206 18.9498 46.6588 19.0436 46.9518C19.1373 47.2409 19.1842 47.5944 19.1842 48.0124V52.1667H18.0944V48.0006C18.0944 47.6686 18.0455 47.403 17.9479 47.2038C17.8502 47.0006 17.7076 46.8542 17.5201 46.7643C17.3326 46.6706 17.1022 46.6237 16.8287 46.6237C16.5592 46.6237 16.3131 46.6803 16.0905 46.7936C15.8717 46.9069 15.6823 47.0631 15.5221 47.2624C15.3658 47.4616 15.2428 47.6901 15.153 47.9479C15.067 48.2018 15.024 48.4713 15.024 48.7565ZM24.8268 50.9362V43.1667H25.9166V52.1667H24.9205L24.8268 50.9362ZM20.5612 49.067V48.944C20.5612 48.4596 20.6198 48.0202 20.7369 47.6256C20.858 47.2272 21.028 46.8854 21.2467 46.6003C21.4694 46.3151 21.733 46.0963 22.0377 45.944C22.3463 45.7878 22.6901 45.7096 23.069 45.7096C23.4674 45.7096 23.8151 45.7799 24.1119 45.9206C24.4127 46.0573 24.6666 46.2585 24.8737 46.5241C25.0846 46.7858 25.2506 47.1022 25.3717 47.4733C25.4928 47.8444 25.5768 48.2643 25.6237 48.7331V49.2721C25.5807 49.737 25.4967 50.1549 25.3717 50.526C25.2506 50.8971 25.0846 51.2135 24.8737 51.4753C24.6666 51.737 24.4127 51.9381 24.1119 52.0788C23.8112 52.2155 23.4596 52.2838 23.0573 52.2838C22.6862 52.2838 22.3463 52.2038 22.0377 52.0436C21.733 51.8835 21.4694 51.6588 21.2467 51.3698C21.028 51.0807 20.858 50.7409 20.7369 50.3503C20.6198 49.9557 20.5612 49.528 20.5612 49.067ZM21.651 48.944V49.067C21.651 49.3835 21.6823 49.6803 21.7448 49.9577C21.8112 50.235 21.9127 50.4792 22.0494 50.6901C22.1862 50.901 22.36 51.067 22.5709 51.1881C22.7819 51.3053 23.0338 51.3639 23.3268 51.3639C23.6862 51.3639 23.9811 51.2878 24.2115 51.1354C24.4459 50.9831 24.6334 50.7819 24.774 50.5319C24.9147 50.2819 25.024 50.0104 25.1022 49.7174V48.3053C25.0553 48.0905 24.9869 47.8835 24.8971 47.6842C24.8112 47.4811 24.6979 47.3014 24.5573 47.1452C24.4205 46.985 24.2506 46.8581 24.0475 46.7643C23.8483 46.6706 23.6119 46.6237 23.3385 46.6237C23.0416 46.6237 22.7858 46.6862 22.5709 46.8112C22.36 46.9323 22.1862 47.1003 22.0494 47.3151C21.9127 47.526 21.8112 47.7721 21.7448 48.0534C21.6823 48.3307 21.651 48.6276 21.651 48.944ZM30.235 52.2838C29.7936 52.2838 29.3932 52.2096 29.0338 52.0612C28.6783 51.9088 28.3717 51.696 28.1139 51.4225C27.86 51.1491 27.6647 50.8249 27.528 50.4499C27.3912 50.0749 27.3229 49.6647 27.3229 49.2194V48.9733C27.3229 48.4577 27.399 47.9987 27.5514 47.5963C27.7037 47.1901 27.9108 46.8463 28.1725 46.5651C28.4342 46.2838 28.7311 46.071 29.0631 45.9264C29.3951 45.7819 29.7389 45.7096 30.0944 45.7096C30.5475 45.7096 30.9381 45.7878 31.2662 45.944C31.5983 46.1003 31.8698 46.319 32.0807 46.6003C32.2916 46.8776 32.4479 47.2057 32.5494 47.5846C32.651 47.9596 32.7018 48.3698 32.7018 48.8151V49.3014H27.9674V48.4167H31.6178V48.3346C31.6022 48.0534 31.5436 47.7799 31.442 47.5143C31.3444 47.2487 31.1881 47.0299 30.9733 46.8581C30.7584 46.6862 30.4655 46.6003 30.0944 46.6003C29.8483 46.6003 29.6217 46.653 29.4147 46.7585C29.2076 46.86 29.0299 47.0124 28.8815 47.2155C28.733 47.4186 28.6178 47.6667 28.5358 47.9596C28.4537 48.2526 28.4127 48.5905 28.4127 48.9733V49.2194C28.4127 49.5202 28.4537 49.8034 28.5358 50.069C28.6217 50.3307 28.7448 50.5612 28.9049 50.7604C29.069 50.9596 29.2662 51.1159 29.4967 51.2292C29.7311 51.3424 29.9967 51.3991 30.2936 51.3991C30.6764 51.3991 31.0006 51.321 31.2662 51.1647C31.5319 51.0085 31.7643 50.7995 31.9635 50.5378L32.6198 51.0592C32.483 51.2663 32.3092 51.4635 32.0983 51.651C31.8873 51.8385 31.6276 51.9909 31.319 52.1081C31.0143 52.2253 30.653 52.2838 30.235 52.2838ZM35.0514 47.1803V52.1667H33.9674V45.8268H34.9928L35.0514 47.1803ZM34.7936 48.7565L34.3424 48.7389C34.3463 48.3053 34.4108 47.9049 34.5358 47.5378C34.6608 47.1667 34.8365 46.8444 35.0631 46.571C35.2897 46.2975 35.5592 46.0866 35.8717 45.9381C36.1881 45.7858 36.5377 45.7096 36.9205 45.7096C37.233 45.7096 37.5143 45.7526 37.7643 45.8385C38.0143 45.9206 38.2272 46.0534 38.403 46.237C38.5826 46.4206 38.7194 46.6588 38.8131 46.9518C38.9069 47.2409 38.9537 47.5944 38.9537 48.0124V52.1667H37.8639V48.0006C37.8639 47.6686 37.8151 47.403 37.7174 47.2038C37.6198 47.0006 37.4772 46.8542 37.2897 46.7643C37.1022 46.6706 36.8717 46.6237 36.5983 46.6237C36.3287 46.6237 36.0826 46.6803 35.86 46.7936C35.6412 46.9069 35.4518 47.0631 35.2916 47.2624C35.1354 47.4616 35.0123 47.6901 34.9225 47.9479C34.8365 48.2018 34.7936 48.4713 34.7936 48.7565ZM43.2545 45.8268V46.6588H39.8268V45.8268H43.2545ZM40.9869 44.2858H42.0709V50.5963C42.0709 50.8112 42.1041 50.9733 42.1705 51.0827C42.2369 51.192 42.3229 51.2643 42.4283 51.2995C42.5338 51.3346 42.6471 51.3522 42.7682 51.3522C42.858 51.3522 42.9518 51.3444 43.0494 51.3288C43.151 51.3092 43.2272 51.2936 43.278 51.2819L43.2838 52.1667C43.1979 52.194 43.0846 52.2194 42.944 52.2428C42.8073 52.2702 42.6412 52.2838 42.4459 52.2838C42.1803 52.2838 41.9362 52.2311 41.7135 52.1256C41.4908 52.0202 41.3131 51.8444 41.1803 51.5983C41.0514 51.3483 40.9869 51.0124 40.9869 50.5905V44.2858ZM47.1569 52.2838C46.7155 52.2838 46.3151 52.2096 45.9557 52.0612C45.6002 51.9088 45.2936 51.696 45.0358 51.4225C44.7819 51.1491 44.5865 50.8249 44.4498 50.4499C44.3131 50.0749 44.2448 49.6647 44.2448 49.2194V48.9733C44.2448 48.4577 44.3209 47.9987 44.4733 47.5963C44.6256 47.1901 44.8326 46.8463 45.0944 46.5651C45.3561 46.2838 45.653 46.071 45.985 45.9264C46.317 45.7819 46.6608 45.7096 47.0162 45.7096C47.4694 45.7096 47.86 45.7878 48.1881 45.944C48.5201 46.1003 48.7916 46.319 49.0026 46.6003C49.2135 46.8776 49.3698 47.2057 49.4713 47.5846C49.5729 47.9596 49.6237 48.3698 49.6237 48.8151V49.3014H44.8893V48.4167H48.5397V48.3346C48.524 48.0534 48.4655 47.7799 48.3639 47.5143C48.2662 47.2487 48.11 47.0299 47.8951 46.8581C47.6803 46.6862 47.3873 46.6003 47.0162 46.6003C46.7701 46.6003 46.5436 46.653 46.3365 46.7585C46.1295 46.86 45.9518 47.0124 45.8033 47.2155C45.6549 47.4186 45.5397 47.6667 45.4576 47.9596C45.3756 48.2526 45.3346 48.5905 45.3346 48.9733V49.2194C45.3346 49.5202 45.3756 49.8034 45.4576 50.069C45.5436 50.3307 45.6666 50.5612 45.8268 50.7604C45.9908 50.9596 46.1881 51.1159 46.4186 51.2292C46.653 51.3424 46.9186 51.3991 47.2155 51.3991C47.5983 51.3991 47.9225 51.321 48.1881 51.1647C48.4537 51.0085 48.6862 50.7995 48.8854 50.5378L49.5416 51.0592C49.4049 51.2663 49.2311 51.4635 49.0201 51.651C48.8092 51.8385 48.5494 51.9909 48.2408 52.1081C47.9362 52.2253 47.5748 52.2838 47.1569 52.2838Z" fill="#690101"/>
</svg>
