<svg width="40" height="54" viewBox="0 0 40 54" fill="none" xmlns="http://www.w3.org/2000/svg">
<path d="M5.8125 44.6602V45.4922H2.38477V44.6602H5.8125ZM3.54492 43.1191H4.62891V49.4297C4.62891 49.6445 4.66211 49.8066 4.72852 49.916C4.79492 50.0254 4.88086 50.0977 4.98633 50.1328C5.0918 50.168 5.20508 50.1855 5.32617 50.1855C5.41602 50.1855 5.50977 50.1777 5.60742 50.1621C5.70898 50.1426 5.78516 50.127 5.83594 50.1152L5.8418 51C5.75586 51.0273 5.64258 51.0527 5.50195 51.0762C5.36523 51.1035 5.19922 51.1172 5.00391 51.1172C4.73828 51.1172 4.49414 51.0645 4.27148 50.959C4.04883 50.8535 3.87109 50.6777 3.73828 50.4316C3.60938 50.1816 3.54492 49.8457 3.54492 49.4238V43.1191ZM10.8223 49.916V46.6523C10.8223 46.4023 10.7715 46.1855 10.6699 46.002C10.5723 45.8145 10.4238 45.6699 10.2246 45.5684C10.0254 45.4668 9.7793 45.416 9.48633 45.416C9.21289 45.416 8.97266 45.4629 8.76562 45.5566C8.5625 45.6504 8.40234 45.7734 8.28516 45.9258C8.17188 46.0781 8.11523 46.2422 8.11523 46.418H7.03125C7.03125 46.1914 7.08984 45.9668 7.20703 45.7441C7.32422 45.5215 7.49219 45.3203 7.71094 45.1406C7.93359 44.957 8.19922 44.8125 8.50781 44.707C8.82031 44.5977 9.16797 44.543 9.55078 44.543C10.0117 44.543 10.418 44.6211 10.7695 44.7773C11.125 44.9336 11.4023 45.1699 11.6016 45.4863C11.8047 45.7988 11.9062 46.1914 11.9062 46.6641V49.6172C11.9062 49.8281 11.9238 50.0527 11.959 50.291C11.998 50.5293 12.0547 50.7344 12.1289 50.9062V51H10.998C10.9434 50.875 10.9004 50.709 10.8691 50.502C10.8379 50.291 10.8223 50.0957 10.8223 49.916ZM11.0098 47.1562L11.0215 47.918H9.92578C9.61719 47.918 9.3418 47.9434 9.09961 47.9941C8.85742 48.041 8.6543 48.1133 8.49023 48.2109C8.32617 48.3086 8.20117 48.4316 8.11523 48.5801C8.0293 48.7246 7.98633 48.8945 7.98633 49.0898C7.98633 49.2891 8.03125 49.4707 8.12109 49.6348C8.21094 49.7988 8.3457 49.9297 8.52539 50.0273C8.70898 50.1211 8.93359 50.168 9.19922 50.168C9.53125 50.168 9.82422 50.0977 10.0781 49.957C10.332 49.8164 10.5332 49.6445 10.6816 49.4414C10.834 49.2383 10.916 49.041 10.9277 48.8496L11.3906 49.3711C11.3633 49.5352 11.2891 49.7168 11.168 49.916C11.0469 50.1152 10.8848 50.3066 10.6816 50.4902C10.4824 50.6699 10.2441 50.8203 9.9668 50.9414C9.69336 51.0586 9.38477 51.1172 9.04102 51.1172C8.61133 51.1172 8.23438 51.0332 7.91016 50.8652C7.58984 50.6973 7.33984 50.4727 7.16016 50.1914C6.98438 49.9062 6.89648 49.5879 6.89648 49.2363C6.89648 48.8965 6.96289 48.5977 7.0957 48.3398C7.22852 48.0781 7.41992 47.8613 7.66992 47.6895C7.91992 47.5137 8.2207 47.3809 8.57227 47.291C8.92383 47.2012 9.31641 47.1562 9.75 47.1562H11.0098ZM14.6953 45.8789V53.4375H13.6055V44.6602H14.6016L14.6953 45.8789ZM18.9668 47.7773V47.9004C18.9668 48.3613 18.9121 48.7891 18.8027 49.1836C18.6934 49.5742 18.5332 49.9141 18.3223 50.2031C18.1152 50.4922 17.8594 50.7168 17.5547 50.877C17.25 51.0371 16.9004 51.1172 16.5059 51.1172C16.1035 51.1172 15.748 51.0508 15.4395 50.918C15.1309 50.7852 14.8691 50.5918 14.6543 50.3379C14.4395 50.084 14.2676 49.7793 14.1387 49.4238C14.0137 49.0684 13.9277 48.668 13.8809 48.2227V47.5664C13.9277 47.0977 14.0156 46.6777 14.1445 46.3066C14.2734 45.9355 14.4434 45.6191 14.6543 45.3574C14.8691 45.0918 15.1289 44.8906 15.4336 44.7539C15.7383 44.6133 16.0898 44.543 16.4883 44.543C16.8867 44.543 17.2402 44.6211 17.5488 44.7773C17.8574 44.9297 18.1172 45.1484 18.3281 45.4336C18.5391 45.7188 18.6973 46.0605 18.8027 46.459C18.9121 46.8535 18.9668 47.293 18.9668 47.7773ZM17.877 47.9004V47.7773C17.877 47.4609 17.8438 47.1641 17.7773 46.8867C17.7109 46.6055 17.6074 46.3594 17.4668 46.1484C17.3301 45.9336 17.1543 45.7656 16.9395 45.6445C16.7246 45.5195 16.4688 45.457 16.1719 45.457C15.8984 45.457 15.6602 45.5039 15.457 45.5977C15.2578 45.6914 15.0879 45.8184 14.9473 45.9785C14.8066 46.1348 14.6914 46.3145 14.6016 46.5176C14.5156 46.7168 14.4512 46.9238 14.4082 47.1387V48.6562C14.4863 48.9297 14.5957 49.1875 14.7363 49.4297C14.877 49.668 15.0645 49.8613 15.2988 50.0098C15.5332 50.1543 15.8281 50.2266 16.1836 50.2266C16.4766 50.2266 16.7285 50.166 16.9395 50.0449C17.1543 49.9199 17.3301 49.75 17.4668 49.5352C17.6074 49.3203 17.7109 49.0742 17.7773 48.7969C17.8438 48.5156 17.877 48.2168 17.877 47.9004ZM24.0879 49.916V46.6523C24.0879 46.4023 24.0371 46.1855 23.9355 46.002C23.8379 45.8145 23.6895 45.6699 23.4902 45.5684C23.291 45.4668 23.0449 45.416 22.752 45.416C22.4785 45.416 22.2383 45.4629 22.0312 45.5566C21.8281 45.6504 21.668 45.7734 21.5508 45.9258C21.4375 46.0781 21.3809 46.2422 21.3809 46.418H20.2969C20.2969 46.1914 20.3555 45.9668 20.4727 45.7441C20.5898 45.5215 20.7578 45.3203 20.9766 45.1406C21.1992 44.957 21.4648 44.8125 21.7734 44.707C22.0859 44.5977 22.4336 44.543 22.8164 44.543C23.2773 44.543 23.6836 44.6211 24.0352 44.7773C24.3906 44.9336 24.668 45.1699 24.8672 45.4863C25.0703 45.7988 25.1719 46.1914 25.1719 46.6641V49.6172C25.1719 49.8281 25.1895 50.0527 25.2246 50.291C25.2637 50.5293 25.3203 50.7344 25.3945 50.9062V51H24.2637C24.209 50.875 24.166 50.709 24.1348 50.502C24.1035 50.291 24.0879 50.0957 24.0879 49.916ZM24.2754 47.1562L24.2871 47.918H23.1914C22.8828 47.918 22.6074 47.9434 22.3652 47.9941C22.123 48.041 21.9199 48.1133 21.7559 48.2109C21.5918 48.3086 21.4668 48.4316 21.3809 48.5801C21.2949 48.7246 21.252 48.8945 21.252 49.0898C21.252 49.2891 21.2969 49.4707 21.3867 49.6348C21.4766 49.7988 21.6113 49.9297 21.791 50.0273C21.9746 50.1211 22.1992 50.168 22.4648 50.168C22.7969 50.168 23.0898 50.0977 23.3438 49.957C23.5977 49.8164 23.7988 49.6445 23.9473 49.4414C24.0996 49.2383 24.1816 49.041 24.1934 48.8496L24.6562 49.3711C24.6289 49.5352 24.5547 49.7168 24.4336 49.916C24.3125 50.1152 24.1504 50.3066 23.9473 50.4902C23.748 50.6699 23.5098 50.8203 23.2324 50.9414C22.959 51.0586 22.6504 51.1172 22.3066 51.1172C21.877 51.1172 21.5 51.0332 21.1758 50.8652C20.8555 50.6973 20.6055 50.4727 20.4258 50.1914C20.25 49.9062 20.1621 49.5879 20.1621 49.2363C20.1621 48.8965 20.2285 48.5977 20.3613 48.3398C20.4941 48.0781 20.6855 47.8613 20.9355 47.6895C21.1855 47.5137 21.4863 47.3809 21.8379 47.291C22.1895 47.2012 22.582 47.1562 23.0156 47.1562H24.2754ZM30.873 49.7695V42H31.9629V51H30.9668L30.873 49.7695ZM26.6074 47.9004V47.7773C26.6074 47.293 26.666 46.8535 26.7832 46.459C26.9043 46.0605 27.0742 45.7188 27.293 45.4336C27.5156 45.1484 27.7793 44.9297 28.084 44.7773C28.3926 44.6211 28.7363 44.543 29.1152 44.543C29.5137 44.543 29.8613 44.6133 30.1582 44.7539C30.459 44.8906 30.7129 45.0918 30.9199 45.3574C31.1309 45.6191 31.2969 45.9355 31.418 46.3066C31.5391 46.6777 31.623 47.0977 31.6699 47.5664V48.1055C31.627 48.5703 31.543 48.9883 31.418 49.3594C31.2969 49.7305 31.1309 50.0469 30.9199 50.3086C30.7129 50.5703 30.459 50.7715 30.1582 50.9121C29.8574 51.0488 29.5059 51.1172 29.1035 51.1172C28.7324 51.1172 28.3926 51.0371 28.084 50.877C27.7793 50.7168 27.5156 50.4922 27.293 50.2031C27.0742 49.9141 26.9043 49.5742 26.7832 49.1836C26.666 48.7891 26.6074 48.3613 26.6074 47.9004ZM27.6973 47.7773V47.9004C27.6973 48.2168 27.7285 48.5137 27.791 48.791C27.8574 49.0684 27.959 49.3125 28.0957 49.5234C28.2324 49.7344 28.4062 49.9004 28.6172 50.0215C28.8281 50.1387 29.0801 50.1973 29.373 50.1973C29.7324 50.1973 30.0273 50.1211 30.2578 49.9688C30.4922 49.8164 30.6797 49.6152 30.8203 49.3652C30.9609 49.1152 31.0703 48.8438 31.1484 48.5508V47.1387C31.1016 46.9238 31.0332 46.7168 30.9434 46.5176C30.8574 46.3145 30.7441 46.1348 30.6035 45.9785C30.4668 45.8184 30.2969 45.6914 30.0938 45.5977C29.8945 45.5039 29.6582 45.457 29.3848 45.457C29.0879 45.457 28.832 45.5195 28.6172 45.6445C28.4062 45.7656 28.2324 45.9336 28.0957 46.1484C27.959 46.3594 27.8574 46.6055 27.791 46.8867C27.7285 47.1641 27.6973 47.4609 27.6973 47.7773ZM33.3633 47.9004V47.7656C33.3633 47.3086 33.4297 46.8848 33.5625 46.4941C33.6953 46.0996 33.8867 45.7578 34.1367 45.4688C34.3867 45.1758 34.6895 44.9492 35.0449 44.7891C35.4004 44.625 35.7988 44.543 36.2402 44.543C36.6855 44.543 37.0859 44.625 37.4414 44.7891C37.8008 44.9492 38.1055 45.1758 38.3555 45.4688C38.6094 45.7578 38.8027 46.0996 38.9355 46.4941C39.0684 46.8848 39.1348 47.3086 39.1348 47.7656V47.9004C39.1348 48.3574 39.0684 48.7812 38.9355 49.1719C38.8027 49.5625 38.6094 49.9043 38.3555 50.1973C38.1055 50.4863 37.8027 50.7129 37.4473 50.877C37.0957 51.0371 36.6973 51.1172 36.252 51.1172C35.8066 51.1172 35.4062 51.0371 35.0508 50.877C34.6953 50.7129 34.3906 50.4863 34.1367 50.1973C33.8867 49.9043 33.6953 49.5625 33.5625 49.1719C33.4297 48.7812 33.3633 48.3574 33.3633 47.9004ZM34.4473 47.7656V47.9004C34.4473 48.2168 34.4844 48.5156 34.5586 48.7969C34.6328 49.0742 34.7441 49.3203 34.8926 49.5352C35.0449 49.75 35.2344 49.9199 35.4609 50.0449C35.6875 50.166 35.9512 50.2266 36.252 50.2266C36.5488 50.2266 36.8086 50.166 37.0312 50.0449C37.2578 49.9199 37.4453 49.75 37.5938 49.5352C37.7422 49.3203 37.8535 49.0742 37.9277 48.7969C38.0059 48.5156 38.0449 48.2168 38.0449 47.9004V47.7656C38.0449 47.4531 38.0059 47.1582 37.9277 46.8809C37.8535 46.5996 37.7402 46.3516 37.5879 46.1367C37.4395 45.918 37.252 45.7461 37.0254 45.6211C36.8027 45.4961 36.541 45.4336 36.2402 45.4336C35.9434 45.4336 35.6816 45.4961 35.4551 45.6211C35.2324 45.7461 35.0449 45.918 34.8926 46.1367C34.7441 46.3516 34.6328 46.5996 34.5586 46.8809C34.4844 47.1582 34.4473 47.4531 34.4473 47.7656Z" fill="#046402"/>
<path d="M20 40C31.046 40 40 31.046 40 20C40 8.954 31.046 0 20 0C8.954 0 0 8.954 0 20C0 31.046 8.954 40 20 40Z" fill="#80ac94"/>
<path d="M12.794 27.106C12.9114 26.9476 13.059 26.814 13.2281 26.7127C13.3972 26.6114 13.5847 26.5445 13.7797 26.5157C13.9748 26.4869 14.1736 26.4968 14.3648 26.5449C14.556 26.593 14.7358 26.6783 14.894 26.796C16.35 27.876 18.108 28.5 20 28.5C21.892 28.5 23.65 27.874 25.106 26.796C25.2637 26.6733 25.4444 26.5833 25.6373 26.5314C25.8303 26.4794 26.0317 26.4666 26.2297 26.4935C26.4277 26.5205 26.6183 26.5868 26.7903 26.6884C26.9624 26.7901 27.1124 26.9251 27.2315 27.0856C27.3506 27.246 27.4365 27.4286 27.4841 27.6227C27.5317 27.8168 27.54 28.0185 27.5085 28.2158C27.4771 28.4132 27.4065 28.6022 27.301 28.7719C27.1955 28.9416 27.0571 29.0885 26.894 29.204C24.9035 30.6922 22.4854 31.4976 20 31.5C17.5146 31.4976 15.0965 30.6922 13.106 29.204C12.7865 28.9671 12.5741 28.613 12.5156 28.2196C12.4571 27.8262 12.5572 27.4256 12.794 27.106ZM26 20C27.104 20 28 18.656 28 17C28 15.344 27.104 14 26 14C24.896 14 24 15.344 24 17C24 18.656 24.896 20 26 20ZM14 20C15.104 20 16 18.656 16 17C16 15.344 15.104 14 14 14C12.896 14 12 15.344 12 17C12 18.656 12.896 20 14 20Z" fill="#01592A"/>
</svg>
