<svg width="134" height="68" viewBox="0 0 134 68" fill="none" xmlns="http://www.w3.org/2000/svg">
<path d="M133.908 34C133.908 52.7777 103.931 68 66.9539 68C29.9763 68 0 52.7777 0 34C0 15.2223 29.9763 0 66.9539 0C103.931 0 133.908 15.2223 133.908 34Z" fill="#888888"/>
<path d="M104.615 25.1077C101.686 16.32 92.9333 6.45125 88.923 2.61536C106.533 4.70766 141.231 16.7384 131.815 42.8923L117.692 35.5692L111.938 30.3384L104.615 25.1077Z" fill="#666060" stroke="#666060"/>
<path fill-rule="evenodd" clip-rule="evenodd" d="M2.10233 43.4329C10.2571 29.2262 36.4363 18.8307 67.4714 18.8307C97.8453 18.8307 123.568 28.788 132.295 42.5303C124.783 57.1793 98.3763 68 66.9538 68C36.1803 68 10.2178 57.6217 2.10233 43.4329Z" fill="#33373C"/>
</svg>
