<svg width="163" height="50" viewBox="0 0 163 50" fill="none" xmlns="http://www.w3.org/2000/svg">
<mask id="mask0_2_39" style="mask-type:luminance" maskUnits="userSpaceOnUse" x="0" y="0" width="163" height="50">
<path d="M162.651 0H0V49.32H162.651V0Z" fill="white"/>
</mask>
<g mask="url(#mask0_2_39)">
<path d="M1.26239 4.72208H4.50886V19.2409L4.18196 22.0365H1.26239V4.72208ZM12.2305 15.8141V16.0509C12.2305 16.9602 12.1328 17.7944 11.9374 18.5534C11.7495 19.3124 11.4564 19.9699 11.0582 20.526C10.6598 21.0746 10.1639 21.5029 9.57019 21.8111C8.98401 22.1117 8.29264 22.2619 7.49605 22.2619C6.75207 22.2619 6.10578 22.1117 5.5572 21.8111C5.01611 21.5105 4.56147 21.0859 4.19323 20.5373C3.82499 19.9887 3.52815 19.3462 3.30271 18.6098C3.07726 17.8733 2.90817 17.0692 2.79544 16.1974V15.6789C2.90817 14.8072 3.07726 14.0031 3.30271 13.2666C3.52815 12.5302 3.82499 11.8876 4.19323 11.339C4.56147 10.7904 5.01611 10.3658 5.5572 10.0652C6.09827 9.76462 6.73705 9.61432 7.47351 9.61432C8.27762 9.61432 8.9765 9.76837 9.57019 10.0765C10.1714 10.3771 10.6674 10.8054 11.0582 11.3615C11.4564 11.9101 11.7495 12.564 11.9374 13.323C12.1328 14.0744 12.2305 14.9049 12.2305 15.8141ZM8.98401 16.0509V15.8141C8.98401 15.3182 8.94645 14.8522 8.87129 14.4164C8.80366 13.973 8.68342 13.5859 8.51057 13.2553C8.33773 12.9172 8.10101 12.6503 7.80041 12.4549C7.50733 12.2595 7.12782 12.1618 6.66189 12.1618C6.21852 12.1618 5.84276 12.2371 5.53465 12.3873C5.22653 12.5376 4.97102 12.748 4.76813 13.0185C4.57274 13.2892 4.4262 13.6123 4.3285 13.988C4.2308 14.3563 4.17069 14.7621 4.14814 15.2054V16.6822C4.17069 17.2758 4.26838 17.8018 4.44122 18.2603C4.62159 18.7112 4.89212 19.0681 5.25284 19.3312C5.62107 19.5867 6.09827 19.7144 6.68444 19.7144C7.14286 19.7144 7.52236 19.6243 7.82296 19.4439C8.12356 19.2635 8.35652 19.008 8.52184 18.6773C8.69469 18.3467 8.81493 17.9597 8.88256 17.5163C8.9502 17.0654 8.98401 16.5769 8.98401 16.0509ZM21.4626 19.117V9.83976H24.7091V22.0365H21.6542L21.4626 19.117ZM21.8234 16.6145L22.7815 16.5919C22.7815 17.4036 22.6875 18.1588 22.4997 18.8577C22.3118 19.5491 22.03 20.1503 21.6542 20.6614C21.2785 21.1648 20.8051 21.5593 20.2339 21.8449C19.6628 22.123 18.9902 22.2619 18.2162 22.2619C17.6224 22.2619 17.0738 22.1794 16.5704 22.014C16.0744 21.8412 15.6461 21.5744 15.2853 21.2136C14.9321 20.8454 14.654 20.3757 14.4512 19.8046C14.2558 19.2259 14.1581 18.5308 14.1581 17.7192V9.83976H17.4045V17.7417C17.4045 18.1025 17.4458 18.4068 17.5285 18.6548C17.6187 18.9028 17.7427 19.1057 17.9005 19.2635C18.0583 19.4213 18.2424 19.534 18.4529 19.6017C18.6708 19.6693 18.9113 19.7032 19.1743 19.7032C19.8431 19.7032 20.3692 19.5679 20.7525 19.2973C21.1433 19.0268 21.4176 18.6585 21.5753 18.1926C21.7407 17.7192 21.8234 17.1931 21.8234 16.6145ZM30.4355 12.5001V22.0365H27.1891V9.83976H30.2439L30.4355 12.5001ZM34.1103 9.76086L34.0539 12.7706C33.8962 12.748 33.7044 12.7292 33.479 12.7142C33.2611 12.6917 33.0619 12.6804 32.8816 12.6804C32.4232 12.6804 32.0249 12.7406 31.6867 12.8608C31.3561 12.9735 31.078 13.1426 30.8526 13.3681C30.6346 13.5935 30.4693 13.8678 30.3566 14.1909C30.2514 14.5141 30.1913 14.8823 30.1762 15.2957L29.5224 15.0927C29.5224 14.3037 29.6013 13.5785 29.7592 12.9172C29.917 12.2483 30.1462 11.6659 30.4467 11.1699C30.7549 10.674 31.1306 10.2907 31.574 10.0201C32.0174 9.74959 32.5246 9.61432 33.0958 9.61432C33.2761 9.61432 33.4603 9.62934 33.6481 9.65941C33.836 9.68195 33.9901 9.71577 34.1103 9.76086ZM41.8432 19.2861V13.8528C41.8432 13.462 41.7793 13.1276 41.6516 12.8495C41.5238 12.564 41.3247 12.3422 41.0541 12.1844C40.7911 12.0266 40.4491 11.9477 40.0283 11.9477C39.6676 11.9477 39.3558 12.0116 39.0927 12.1394C38.8297 12.2595 38.6268 12.4361 38.484 12.6691C38.3413 12.8946 38.2698 13.1614 38.2698 13.4695H35.0234C35.0234 12.951 35.1436 12.4587 35.384 11.9928C35.6246 11.5269 35.974 11.1173 36.4325 10.7641C36.8908 10.4034 37.4357 10.1216 38.067 9.91867C38.7057 9.71577 39.4196 9.61432 40.2087 9.61432C41.1555 9.61432 41.9972 9.77213 42.7337 10.0878C43.4702 10.4034 44.0488 10.8768 44.4696 11.5081C44.898 12.1394 45.1122 12.9284 45.1122 13.8753V19.0945C45.1122 19.7633 45.1535 20.3118 45.2362 20.7402C45.3189 21.1611 45.4391 21.5293 45.5969 21.8449V22.0365H42.3167C42.1588 21.7059 42.0386 21.2925 41.9559 20.7966C41.8807 20.293 41.8432 19.7895 41.8432 19.2861ZM42.2715 14.608L42.2941 16.4454H40.4792C40.0509 16.4454 39.6789 16.4942 39.3632 16.5919C39.0476 16.6896 38.7884 16.8287 38.5854 17.0091C38.3825 17.1819 38.2322 17.3848 38.1345 17.6178C38.0444 17.8507 37.9993 18.1063 37.9993 18.3842C37.9993 18.6623 38.0632 18.9141 38.1909 19.1396C38.3187 19.3574 38.5027 19.5304 38.7433 19.6581C38.9838 19.7783 39.2655 19.8384 39.5887 19.8384C40.0772 19.8384 40.5018 19.7408 40.8624 19.5454C41.2232 19.35 41.5013 19.1095 41.6967 18.8239C41.8995 18.5383 42.0048 18.2678 42.0122 18.0122L42.8689 19.3875C42.7488 19.6956 42.5834 20.0151 42.373 20.3457C42.1701 20.6764 41.9109 20.9882 41.5952 21.2813C41.2796 21.5669 40.9 21.8036 40.4567 21.9914C40.0133 22.1718 39.4873 22.2619 38.8785 22.2619C38.1045 22.2619 37.4019 22.1079 36.7706 21.7998C36.1468 21.4842 35.6509 21.052 35.2826 20.5035C34.9219 19.9474 34.7415 19.3162 34.7415 18.6098C34.7415 17.971 34.8618 17.4036 35.1023 16.9076C35.3427 16.4115 35.6959 15.9945 36.1618 15.6563C36.6353 15.3107 37.2253 15.0514 37.9317 14.8785C38.638 14.6981 39.4571 14.608 40.3891 14.608H42.2715ZM52.6535 19.7257C53.0517 19.7257 53.4049 19.6505 53.713 19.5002C54.0211 19.3424 54.2616 19.1245 54.4345 18.8465C54.6149 18.5608 54.7088 18.2264 54.7163 17.8432H57.7711C57.7636 18.6999 57.5344 19.4627 57.0835 20.1315C56.6327 20.7928 56.0277 21.3151 55.2686 21.6983C54.5096 22.0741 53.6605 22.2619 52.7211 22.2619C51.7742 22.2619 50.9476 22.1042 50.2411 21.7886C49.5422 21.4729 48.9599 21.037 48.4939 20.481C48.028 19.9174 47.6786 19.2635 47.4456 18.5195C47.2127 17.7681 47.0962 16.9639 47.0962 16.1072V15.7804C47.0962 14.9161 47.2127 14.112 47.4456 13.3681C47.6786 12.6165 48.028 11.9628 48.4939 11.4066C48.9599 10.843 49.5422 10.4034 50.2411 10.0878C50.94 9.77213 51.7591 9.61432 52.6985 9.61432C53.698 9.61432 54.5735 9.80595 55.3251 10.1892C56.0841 10.5725 56.6777 11.1211 57.106 11.835C57.542 12.5414 57.7636 13.3793 57.7711 14.3487H54.7163C54.7088 13.9429 54.6224 13.5747 54.457 13.244C54.2992 12.9134 54.0663 12.6503 53.7582 12.4549C53.4575 12.2521 53.0855 12.1506 52.6422 12.1506C52.1687 12.1506 51.7817 12.2521 51.4812 12.4549C51.1805 12.6503 50.9476 12.9209 50.7823 13.2666C50.6169 13.6047 50.5004 13.9918 50.4327 14.4276C50.3727 14.856 50.3426 15.3069 50.3426 15.7804V16.1072C50.3426 16.5807 50.3727 17.0353 50.4327 17.4712C50.4929 17.9071 50.6057 18.2941 50.7709 18.6323C50.9438 18.9704 51.1805 19.2373 51.4812 19.4327C51.7817 19.6281 52.1725 19.7257 52.6535 19.7257ZM59.1351 16.0621V15.8255C59.1351 14.9311 59.2629 14.1083 59.5184 13.3568C59.7738 12.5977 60.1458 11.9402 60.6343 11.3841C61.1228 10.828 61.724 10.3959 62.438 10.0878C63.1518 9.77213 63.971 9.61432 64.8954 9.61432C65.8196 9.61432 66.6425 9.77213 67.364 10.0878C68.0854 10.3959 68.6904 10.828 69.1788 11.3841C69.6749 11.9402 70.0506 12.5977 70.3061 13.3568C70.5616 14.1083 70.6894 14.9311 70.6894 15.8255V16.0621C70.6894 16.9489 70.5616 17.7718 70.3061 18.5308C70.0506 19.2823 69.6749 19.9399 69.1788 20.5035C68.6904 21.0596 68.0892 21.4917 67.3753 21.7998C66.6613 22.1079 65.8422 22.2619 64.9179 22.2619C63.9935 22.2619 63.1706 22.1079 62.4492 21.7998C61.7353 21.4917 61.1303 21.0596 60.6343 20.5035C60.1458 19.9399 59.7738 19.2823 59.5184 18.5308C59.2629 17.7718 59.1351 16.9489 59.1351 16.0621ZM62.3816 15.8255V16.0621C62.3816 16.5731 62.4266 17.0504 62.5169 17.4938C62.607 17.9371 62.7498 18.3279 62.9452 18.6661C63.1481 18.9968 63.4111 19.2561 63.7342 19.4439C64.0574 19.6317 64.4519 19.7257 64.9179 19.7257C65.3687 19.7257 65.7558 19.6317 66.0789 19.4439C66.402 19.2561 66.6613 18.9968 66.8567 18.6661C67.0521 18.3279 67.1949 17.9371 67.2851 17.4938C67.3828 17.0504 67.4317 16.5731 67.4317 16.0621V15.8255C67.4317 15.3294 67.3828 14.8635 67.2851 14.4276C67.1949 13.9843 67.0483 13.5935 66.8455 13.2553C66.6501 12.9096 66.3908 12.6391 66.0677 12.4437C65.7445 12.2483 65.3537 12.1506 64.8954 12.1506C64.4369 12.1506 64.0461 12.2483 63.723 12.4437C63.4074 12.6391 63.1481 12.9096 62.9452 13.2553C62.7498 13.5935 62.607 13.9843 62.5169 14.4276C62.4266 14.8635 62.3816 15.3294 62.3816 15.8255ZM79.279 18.6661C79.279 18.4331 79.2114 18.2227 79.076 18.0348C78.9408 17.847 78.689 17.6741 78.3208 17.5163C77.9601 17.3509 77.4378 17.2007 76.754 17.0654C76.1377 16.9301 75.5629 16.7611 75.0293 16.5581C74.5032 16.3477 74.0447 16.096 73.6541 15.8029C73.2707 15.5098 72.9702 15.1641 72.7522 14.7658C72.5343 14.36 72.4254 13.8978 72.4254 13.3793C72.4254 12.8683 72.5343 12.3873 72.7522 11.9364C72.9776 11.4855 73.2971 11.0873 73.7104 10.7415C74.1312 10.3884 74.6423 10.1141 75.2434 9.91867C75.8522 9.71577 76.536 9.61432 77.295 9.61432C78.3546 9.61432 79.264 9.7834 80.023 10.1216C80.7895 10.4597 81.3757 10.9257 81.7815 11.5193C82.1948 12.1055 82.4014 12.7744 82.4014 13.5258H79.1549C79.1549 13.2103 79.0873 12.9284 78.9521 12.6804C78.8243 12.4249 78.6214 12.2257 78.3434 12.0829C78.0728 11.9327 77.7196 11.8575 77.2837 11.8575C76.923 11.8575 76.6112 11.9214 76.3481 12.0491C76.0851 12.1694 75.8822 12.3348 75.7395 12.5452C75.6042 12.748 75.5365 12.9735 75.5365 13.2215C75.5365 13.4093 75.5741 13.5785 75.6492 13.7287C75.7319 13.8716 75.8634 14.0031 76.0438 14.1233C76.2242 14.2436 76.4571 14.3563 76.7427 14.4614C77.0357 14.5591 77.3965 14.6494 77.8249 14.732C78.7041 14.9123 79.4894 15.1491 80.1808 15.4421C80.8721 15.7278 81.4207 16.1186 81.8265 16.6145C82.2324 17.103 82.4352 17.7455 82.4352 18.5421C82.4352 19.0831 82.315 19.5792 82.0746 20.0301C81.8341 20.481 81.4884 20.8755 81.0375 21.2136C80.5866 21.5443 80.0455 21.8036 79.4142 21.9914C78.7905 22.1718 78.0878 22.2619 77.3063 22.2619C76.1715 22.2619 75.2096 22.0591 74.4205 21.6533C73.639 21.2474 73.0453 20.7327 72.6395 20.109C72.2412 19.4777 72.042 18.8314 72.042 18.1701H75.1194C75.1345 18.6135 75.2472 18.9704 75.4576 19.2409C75.6756 19.5116 75.9499 19.7069 76.2805 19.8271C76.6186 19.9474 76.9832 20.0075 77.3739 20.0075C77.7947 20.0075 78.1442 19.9511 78.4223 19.8384C78.7003 19.7182 78.9107 19.5604 79.0536 19.365C79.2038 19.162 79.279 18.9291 79.279 18.6661ZM95.9058 22.2619C94.9589 22.2619 94.1097 22.1117 93.3582 21.8111C92.6068 21.5029 91.9679 21.0784 91.4419 20.5373C90.9234 19.9963 90.5251 19.3688 90.2471 18.6548C89.969 17.9333 89.83 17.1669 89.83 16.3552V15.9043C89.83 14.98 89.9615 14.1345 90.2245 13.3681C90.4875 12.6015 90.8633 11.9364 91.3518 11.3728C91.8477 10.8092 92.449 10.3771 93.1553 10.0765C93.8617 9.76837 94.6583 9.61432 95.5451 9.61432C96.4093 9.61432 97.1758 9.7571 97.8447 10.0427C98.5136 10.3282 99.0734 10.7341 99.5243 11.2601C99.9827 11.7862 100.328 12.4174 100.561 13.1539C100.794 13.8828 100.911 14.6945 100.911 15.5887V16.9414H91.2165V14.7771H97.7207V14.5291C97.7207 14.0782 97.638 13.6762 97.4727 13.323C97.3149 12.9622 97.0744 12.6767 96.7513 12.4663C96.4282 12.2559 96.0148 12.1506 95.5113 12.1506C95.083 12.1506 94.7147 12.2445 94.4066 12.4325C94.0985 12.6203 93.8467 12.8833 93.6513 13.2215C93.4635 13.5597 93.3207 13.9579 93.223 14.4164C93.1328 14.8673 93.0877 15.3632 93.0877 15.9043V16.3552C93.0877 16.8437 93.1553 17.2946 93.2906 17.7079C93.4334 18.1213 93.6326 18.4782 93.8881 18.7788C94.151 19.0794 94.4667 19.3124 94.8349 19.4777C95.2107 19.6431 95.6353 19.7257 96.1087 19.7257C96.6949 19.7257 97.2397 19.6129 97.7432 19.3875C98.2543 19.1546 98.6938 18.8051 99.062 18.3392L100.64 20.0526C100.385 20.4208 100.035 20.7741 99.5919 21.1122C99.1561 21.4504 98.63 21.7285 98.0137 21.9464C97.3976 22.1568 96.6949 22.2619 95.9058 22.2619ZM106.006 12.3648V22.0365H102.748V9.83976H105.803L106.006 12.3648ZM105.555 15.5098H104.653C104.653 14.6606 104.755 13.879 104.958 13.1651C105.168 12.4437 105.472 11.82 105.871 11.2939C106.276 10.7603 106.777 10.347 107.37 10.0539C107.963 9.76086 108.651 9.61432 109.433 9.61432C109.974 9.61432 110.469 9.69699 110.921 9.86231C111.372 10.0201 111.759 10.2719 112.082 10.6176C112.413 10.9557 112.668 11.3992 112.848 11.9477C113.029 12.4888 113.119 13.1388 113.119 13.8978V22.0365H109.872V14.2586C109.872 13.7024 109.797 13.2741 109.647 12.9735C109.497 12.6729 109.283 12.4625 109.004 12.3422C108.734 12.222 108.407 12.1618 108.023 12.1618C107.602 12.1618 107.234 12.2483 106.919 12.4211C106.611 12.594 106.356 12.8345 106.152 13.1426C105.95 13.4432 105.8 13.7964 105.701 14.2022C105.603 14.608 105.555 15.0439 105.555 15.5098ZM112.815 15.1378L111.653 15.2843C111.653 14.4878 111.751 13.7475 111.947 13.0637C112.149 12.3798 112.446 11.7786 112.837 11.2601C113.235 10.7415 113.728 10.3395 114.314 10.0539C114.9 9.76086 115.577 9.61432 116.343 9.61432C116.929 9.61432 117.462 9.70074 117.944 9.87358C118.425 10.0389 118.834 10.3057 119.172 10.674C119.518 11.0346 119.78 11.5081 119.961 12.0943C120.149 12.6804 120.243 13.3981 120.243 14.2472V22.0365H116.985V14.2472C116.985 13.6836 116.91 13.2553 116.76 12.9622C116.618 12.6617 116.407 12.4549 116.129 12.3422C115.858 12.222 115.535 12.1618 115.159 12.1618C114.769 12.1618 114.426 12.2408 114.134 12.3986C113.84 12.549 113.596 12.7593 113.4 13.0299C113.205 13.3004 113.059 13.616 112.961 13.9767C112.863 14.3299 112.815 14.7169 112.815 15.1378Z" fill="white"/>
<path d="M20.2382 27.3101L10.9364 47.2213H9.59905L0.297241 27.3101H3.50682L10.2231 42.7042L17.0286 27.3101H20.2382ZM29.0942 27.3101L38.396 47.2213H35.1864L33.1062 42.4665H23.7746L21.6647 47.2213H18.4551L27.7569 27.3101H29.0942ZM28.4702 31.8273L24.8742 39.9403H32.0066L28.4702 31.8273ZM49.5998 27.3101C50.749 27.3101 51.8485 27.5281 52.8986 27.9639C53.9486 28.3799 54.8104 29.0338 55.484 29.9253C56.1774 30.797 56.5241 31.9164 56.5241 33.2835C56.5241 34.5118 56.1676 35.552 55.4543 36.4039C54.7609 37.2559 53.8694 37.8998 52.7797 38.3356C51.7098 38.7516 50.6004 38.9597 49.4512 38.9597C49.0947 38.9597 48.6191 38.9399 48.0247 38.9002L57.2969 47.2213H53.1958L44.6369 38.9002V47.2213H41.9623V27.3101H49.5998ZM44.6369 29.8361V36.2256C45.2907 36.4039 46.0039 36.5426 46.7766 36.6417C47.5493 36.7407 48.312 36.7903 49.0649 36.7903C50.5706 36.7903 51.7296 36.4733 52.5419 35.8392C53.3741 35.2053 53.7901 34.3533 53.7901 33.2835C53.7901 32.174 53.3344 31.322 52.423 30.7277C51.5315 30.1333 50.4418 29.8361 49.1541 29.8361H44.6369ZM68.4709 36.3445H77.2378V44.517C76.7623 45.0321 76.1482 45.5373 75.3952 46.0326C74.6424 46.5081 73.7707 46.9043 72.78 47.2213C71.8092 47.5185 70.7394 47.6671 69.5705 47.6671C68.0648 47.6671 66.6779 47.3996 65.4099 46.8648C64.142 46.31 63.0325 45.5572 62.0815 44.6061C61.1305 43.6552 60.3876 42.5556 59.8526 41.3074C59.3375 40.0394 59.08 38.6922 59.08 37.2657C59.08 35.8392 59.3375 34.5019 59.8526 33.2538C60.3876 31.9858 61.1305 30.8763 62.0815 29.9253C63.0325 28.9743 64.142 28.2314 65.4099 27.6965C66.6779 27.1417 68.0648 26.8643 69.5705 26.8643C71.0168 26.8643 72.1956 27.0625 73.107 27.4587C74.0381 27.8549 74.8504 28.3701 75.5438 29.004V31.9462C75.108 31.6292 74.6127 31.2825 74.0579 30.906C73.5231 30.5296 72.889 30.2027 72.156 29.9253C71.4427 29.6282 70.5809 29.4796 69.5705 29.4796C68.0845 29.4796 66.7572 29.8163 65.5882 30.49C64.4193 31.1636 63.4981 32.0948 62.8244 33.2835C62.1508 34.4524 61.814 35.7798 61.814 37.2657C61.814 38.7516 62.1508 40.0791 62.8244 41.2479C63.4981 42.4168 64.4193 43.348 65.5882 44.0415C66.7572 44.7151 68.0845 45.0519 69.5705 45.0519C70.5809 45.0519 71.3932 44.9528 72.0074 44.7547C72.6216 44.5368 73.107 44.2991 73.4636 44.0415C73.8202 43.7641 74.1075 43.5363 74.3254 43.358L74.3551 38.7219H68.4709V36.3445ZM94.0583 35.7501V38.2762H84.3702V44.6953H95.3363V47.2213H81.6955V27.3101H95.3363V29.8361H84.3702V35.7501H94.0583ZM119.497 27.3101V47.2213H116.822V32.8079L110.671 39.3757H109.957L103.657 32.8079V47.2213H100.983V27.3101H101.815L110.314 36.4336L118.665 27.3101H119.497Z" fill="white"/>
<path d="M126.671 47.2213C125.08 41.2604 124.729 37.3504 139.405 25.4045C149.7 17.0243 149.327 11.9039 149.015 10.7455C148.841 10.4069 148.926 10.4124 149.015 10.7455C149.063 10.8376 149.129 10.9551 149.22 11.0985H162.485C163.546 11.0985 159.567 25.4045 149.22 32.5576C138.766 39.7858 140.643 44.0023 141.793 47.2213H126.671Z" fill="white"/>
<path d="M132.576 41.9745L133.622 42.0636L133.265 46.2459L132.22 46.1567L132.576 41.9745Z" fill="black"/>
<path d="M136.316 34.7074L137.203 35.2674L134.963 38.817L134.076 38.2568L136.316 34.7074Z" fill="black"/>
<path d="M142.57 29.4844L143.275 30.2608L140.17 33.0843L139.464 32.3079L142.57 29.4844Z" fill="black"/>
<path d="M147.646 24.1353L148.421 24.8438L145.586 27.9399L144.812 27.2313L147.646 24.1353Z" fill="black"/>
<path d="M152.651 18.7761L153.507 19.3839L151.075 22.8053L150.219 22.1975L152.651 18.7761Z" fill="black"/>
<path d="M156.16 12.5923L157.095 13.0682L155.191 16.8093L154.256 16.3334L156.16 12.5923Z" fill="black"/>
</g>
</svg>
