<svg width="40" height="56" viewBox="0 0 40 56" fill="none" xmlns="http://www.w3.org/2000/svg">
<path opacity="0.5" d="M20 40C31.046 40 40 31.046 40 20C40 8.954 31.046 0 20 0C8.954 0 0 8.954 0 20C0 31.046 8.954 40 20 40Z" fill="#840000"/>
<path d="M12.794 30.894C12.9114 31.0524 13.059 31.186 13.2281 31.2873C13.3972 31.3886 13.5847 31.4556 13.7797 31.4844C13.9748 31.5132 14.1736 31.5032 14.3648 31.4551C14.556 31.407 14.7358 31.3217 14.894 31.204C16.3676 30.1001 18.1587 29.5023 20 29.5C21.8412 29.5028 23.6322 30.1005 25.106 31.204C25.2637 31.3268 25.4443 31.4167 25.6373 31.4687C25.8303 31.5206 26.0317 31.5335 26.2297 31.5065C26.4277 31.4795 26.6183 31.4133 26.7903 31.3116C26.9624 31.2099 27.1124 31.0749 27.2315 30.9145C27.3506 30.754 27.4365 30.5714 27.4841 30.3773C27.5316 30.1832 27.54 29.9816 27.5085 29.7842C27.4771 29.5869 27.4065 29.3978 27.301 29.2281C27.1955 29.0584 27.0571 28.9115 26.894 28.796C24.9035 27.3078 22.4854 26.5025 20 26.5C17.5146 26.5025 15.0965 27.3078 13.106 28.796C12.7865 29.0329 12.5741 29.387 12.5156 29.7804C12.4571 30.1739 12.5572 30.5744 12.794 30.894ZM26 20C27.104 20 28 18.656 28 17C28 15.344 27.104 14 26 14C24.896 14 24 15.344 24 17C24 18.656 24.896 20 26 20ZM14 20C15.104 20 16 18.656 16 17C16 15.344 15.104 14 14 14C12.896 14 12 15.344 12 17C12 18.656 12.896 20 14 20Z" fill="#840000"/>
<path d="M6.91077 51.0827V47.819C6.91077 47.569 6.85999 47.3522 6.75842 47.1686C6.66077 46.9811 6.51233 46.8366 6.31311 46.735C6.11389 46.6335 5.8678 46.5827 5.57483 46.5827C5.30139 46.5827 5.06116 46.6295 4.85413 46.7233C4.651 46.817 4.49084 46.9401 4.37366 47.0924C4.26038 47.2448 4.20374 47.4088 4.20374 47.5846H3.11975C3.11975 47.3581 3.17834 47.1335 3.29553 46.9108C3.41272 46.6881 3.58069 46.487 3.79944 46.3073C4.02209 46.1237 4.28772 45.9792 4.59631 45.8737C4.90881 45.7643 5.25647 45.7096 5.63928 45.7096C6.10022 45.7096 6.50647 45.7878 6.85803 45.944C7.2135 46.1003 7.49084 46.3366 7.69006 46.653C7.89319 46.9655 7.99475 47.3581 7.99475 47.8307V50.7838C7.99475 50.9948 8.01233 51.2194 8.04749 51.4577C8.08655 51.696 8.14319 51.901 8.21741 52.0729V52.1667H7.08655C7.03186 52.0417 6.98889 51.8756 6.95764 51.6686C6.92639 51.4577 6.91077 51.2624 6.91077 51.0827ZM7.09827 48.3229L7.10999 49.0846H6.01428C5.70569 49.0846 5.4303 49.11 5.18811 49.1608C4.94592 49.2077 4.7428 49.2799 4.57874 49.3776C4.41467 49.4753 4.28967 49.5983 4.20374 49.7467C4.1178 49.8913 4.07483 50.0612 4.07483 50.2565C4.07483 50.4557 4.11975 50.6374 4.20959 50.8014C4.29944 50.9655 4.4342 51.0963 4.61389 51.194C4.79749 51.2878 5.02209 51.3346 5.28772 51.3346C5.61975 51.3346 5.91272 51.2643 6.16663 51.1237C6.42053 50.9831 6.6217 50.8112 6.77014 50.6081C6.92249 50.4049 7.00452 50.2077 7.01624 50.0163L7.47913 50.5378C7.45178 50.7018 7.37756 50.8835 7.25647 51.0827C7.13538 51.2819 6.97327 51.4733 6.77014 51.6569C6.57092 51.8366 6.33264 51.987 6.0553 52.1081C5.78186 52.2253 5.47327 52.2838 5.12952 52.2838C4.69983 52.2838 4.32288 52.1999 3.99866 52.0319C3.67834 51.8639 3.42834 51.6393 3.24866 51.3581C3.07288 51.0729 2.98499 50.7545 2.98499 50.403C2.98499 50.0631 3.05139 49.7643 3.1842 49.5065C3.31702 49.2448 3.50842 49.028 3.75842 48.8561C4.00842 48.6803 4.3092 48.5475 4.66077 48.4577C5.01233 48.3678 5.40491 48.3229 5.8385 48.3229H7.09827ZM9.69397 43.1667H10.7838V50.9362L10.6901 52.1667H9.69397V43.1667ZM15.067 48.944V49.067C15.067 49.528 15.0123 49.9557 14.903 50.3503C14.7936 50.7409 14.6334 51.0807 14.4225 51.3698C14.2115 51.6588 13.9537 51.8835 13.649 52.0436C13.3444 52.2038 12.9948 52.2838 12.6002 52.2838C12.1979 52.2838 11.8444 52.2155 11.5397 52.0788C11.2389 51.9381 10.985 51.737 10.778 51.4753C10.5709 51.2135 10.4049 50.8971 10.2799 50.526C10.1588 50.1549 10.0748 49.737 10.028 49.2721V48.7331C10.0748 48.2643 10.1588 47.8444 10.2799 47.4733C10.4049 47.1022 10.5709 46.7858 10.778 46.5241C10.985 46.2585 11.2389 46.0573 11.5397 45.9206C11.8405 45.7799 12.1901 45.7096 12.5885 45.7096C12.9869 45.7096 13.3405 45.7878 13.649 45.944C13.9576 46.0963 14.2155 46.3151 14.4225 46.6003C14.6334 46.8854 14.7936 47.2272 14.903 47.6256C15.0123 48.0202 15.067 48.4596 15.067 48.944ZM13.9772 49.067V48.944C13.9772 48.6276 13.9479 48.3307 13.8893 48.0534C13.8307 47.7721 13.7369 47.526 13.608 47.3151C13.4791 47.1003 13.3092 46.9323 13.0983 46.8112C12.8873 46.6862 12.6276 46.6237 12.319 46.6237C12.0455 46.6237 11.8073 46.6706 11.6041 46.7643C11.4049 46.8581 11.235 46.985 11.0944 47.1452C10.9537 47.3014 10.8385 47.4811 10.7487 47.6842C10.6627 47.8835 10.5983 48.0905 10.5553 48.3053V49.7174C10.6178 49.9909 10.7194 50.2545 10.86 50.5085C11.0045 50.7585 11.1959 50.9635 11.4342 51.1237C11.6764 51.2838 11.9752 51.3639 12.3307 51.3639C12.6237 51.3639 12.8737 51.3053 13.0807 51.1881C13.2916 51.067 13.4615 50.901 13.5905 50.6901C13.7233 50.4792 13.8209 50.235 13.8834 49.9577C13.9459 49.6803 13.9772 49.3835 13.9772 49.067ZM19.069 52.2838C18.6276 52.2838 18.2272 52.2096 17.8678 52.0612C17.5123 51.9088 17.2057 51.696 16.9479 51.4225C16.694 51.1491 16.4987 50.8249 16.3619 50.4499C16.2252 50.0749 16.1569 49.6647 16.1569 49.2194V48.9733C16.1569 48.4577 16.233 47.9987 16.3854 47.5963C16.5377 47.1901 16.7448 46.8463 17.0065 46.5651C17.2682 46.2838 17.5651 46.071 17.8971 45.9264C18.2291 45.7819 18.5729 45.7096 18.9283 45.7096C19.3815 45.7096 19.7721 45.7878 20.1002 45.944C20.4323 46.1003 20.7037 46.319 20.9147 46.6003C21.1256 46.8776 21.2819 47.2057 21.3834 47.5846C21.485 47.9596 21.5358 48.3698 21.5358 48.8151V49.3014H16.8014V48.4167H20.4518V48.3346C20.4362 48.0534 20.3776 47.7799 20.276 47.5143C20.1783 47.2487 20.0221 47.0299 19.8073 46.8581C19.5924 46.6862 19.2994 46.6003 18.9283 46.6003C18.6823 46.6003 18.4557 46.653 18.2487 46.7585C18.0416 46.86 17.8639 47.0124 17.7155 47.2155C17.567 47.4186 17.4518 47.6667 17.3698 47.9596C17.2877 48.2526 17.2467 48.5905 17.2467 48.9733V49.2194C17.2467 49.5202 17.2877 49.8034 17.3698 50.069C17.4557 50.3307 17.5787 50.5612 17.7389 50.7604C17.903 50.9596 18.1002 51.1159 18.3307 51.2292C18.5651 51.3424 18.8307 51.3991 19.1276 51.3991C19.5104 51.3991 19.8346 51.321 20.1002 51.1647C20.3658 51.0085 20.5983 50.7995 20.7975 50.5378L21.4537 51.0592C21.317 51.2663 21.1432 51.4635 20.9323 51.651C20.7213 51.8385 20.4615 51.9909 20.153 52.1081C19.8483 52.2253 19.4869 52.2838 19.069 52.2838ZM23.8854 46.8229V52.1667H22.8014V45.8268H23.8561L23.8854 46.8229ZM25.8658 45.7917L25.86 46.7995C25.7701 46.7799 25.6842 46.7682 25.6022 46.7643C25.524 46.7565 25.4342 46.7526 25.3326 46.7526C25.0826 46.7526 24.8619 46.7917 24.6705 46.8698C24.4791 46.9479 24.317 47.0573 24.1842 47.1979C24.0514 47.3385 23.9459 47.5065 23.8678 47.7018C23.7936 47.8932 23.7448 48.1042 23.7213 48.3346L23.4166 48.5104C23.4166 48.1276 23.4537 47.7682 23.528 47.4323C23.6061 47.0963 23.7252 46.7995 23.8854 46.5417C24.0455 46.2799 24.2487 46.0768 24.4948 45.9323C24.7448 45.7838 25.0416 45.7096 25.3854 45.7096C25.4635 45.7096 25.5533 45.7194 25.6549 45.7389C25.7565 45.7545 25.8268 45.7721 25.8658 45.7917ZM29.8151 45.8268V46.6588H26.3873V45.8268H29.8151ZM27.5475 44.2858H28.6315V50.5963C28.6315 50.8112 28.6647 50.9733 28.7311 51.0827C28.7975 51.192 28.8834 51.2643 28.9889 51.2995C29.0944 51.3346 29.2076 51.3522 29.3287 51.3522C29.4186 51.3522 29.5123 51.3444 29.61 51.3288C29.7115 51.3092 29.7877 51.2936 29.8385 51.2819L29.8444 52.1667C29.7584 52.194 29.6451 52.2194 29.5045 52.2428C29.3678 52.2702 29.2018 52.2838 29.0065 52.2838C28.7408 52.2838 28.4967 52.2311 28.274 52.1256C28.0514 52.0202 27.8737 51.8444 27.7408 51.5983C27.6119 51.3483 27.5475 51.0124 27.5475 50.5905V44.2858ZM30.6823 49.067V48.9323C30.6823 48.4753 30.7487 48.0514 30.8815 47.6608C31.0143 47.2663 31.2057 46.9245 31.4557 46.6354C31.7057 46.3424 32.0084 46.1159 32.3639 45.9557C32.7194 45.7917 33.1178 45.7096 33.5592 45.7096C34.0045 45.7096 34.4049 45.7917 34.7604 45.9557C35.1198 46.1159 35.4244 46.3424 35.6744 46.6354C35.9283 46.9245 36.1217 47.2663 36.2545 47.6608C36.3873 48.0514 36.4537 48.4753 36.4537 48.9323V49.067C36.4537 49.5241 36.3873 49.9479 36.2545 50.3385C36.1217 50.7292 35.9283 51.071 35.6744 51.3639C35.4244 51.653 35.1217 51.8795 34.7662 52.0436C34.4147 52.2038 34.0162 52.2838 33.5709 52.2838C33.1256 52.2838 32.7252 52.2038 32.3698 52.0436C32.0143 51.8795 31.7096 51.653 31.4557 51.3639C31.2057 51.071 31.0143 50.7292 30.8815 50.3385C30.7487 49.9479 30.6823 49.5241 30.6823 49.067ZM31.7662 48.9323V49.067C31.7662 49.3835 31.8033 49.6823 31.8776 49.9635C31.9518 50.2409 32.0631 50.487 32.2115 50.7018C32.3639 50.9167 32.5533 51.0866 32.7799 51.2116C33.0065 51.3327 33.2701 51.3932 33.5709 51.3932C33.8678 51.3932 34.1276 51.3327 34.3502 51.2116C34.5768 51.0866 34.7643 50.9167 34.9127 50.7018C35.0612 50.487 35.1725 50.2409 35.2467 49.9635C35.3248 49.6823 35.3639 49.3835 35.3639 49.067V48.9323C35.3639 48.6198 35.3248 48.3249 35.2467 48.0475C35.1725 47.7663 35.0592 47.5182 34.9069 47.3034C34.7584 47.0846 34.5709 46.9128 34.3444 46.7878C34.1217 46.6628 33.86 46.6003 33.5592 46.6003C33.2623 46.6003 33.0006 46.6628 32.774 46.7878C32.5514 46.9128 32.3639 47.0846 32.2115 47.3034C32.0631 47.5182 31.9518 47.7663 31.8776 48.0475C31.8033 48.3249 31.7662 48.6198 31.7662 48.9323Z" fill="#690101"/>
</svg>
