<svg width="143" height="93" viewBox="0 0 143 93" fill="none" xmlns="http://www.w3.org/2000/svg">
<path d="M133.908 59C133.908 77.7777 103.931 93 66.9539 93C29.9763 93 0 77.7777 0 59C0 40.2223 29.9763 25 66.9539 25C103.931 25 133.908 40.2223 133.908 59Z" fill="#888888"/>
<path d="M104.615 50.1077C101.686 41.32 92.9334 31.4513 88.9231 27.6154C106.533 29.7077 141.231 41.7384 131.815 67.8923L117.692 60.5692L111.938 55.3384L104.615 50.1077Z" fill="#666060" stroke="#666060"/>
<path fill-rule="evenodd" clip-rule="evenodd" d="M2.10229 68.4329C10.2571 54.2262 36.4362 43.8307 67.4713 43.8307C97.8453 43.8307 123.568 53.788 132.295 67.5303C124.783 82.1793 98.3763 93 66.9538 93C36.1803 93 10.2178 82.6217 2.10229 68.4329Z" fill="#33373C"/>
<path d="M142.908 34C142.908 52.7777 112.931 68 75.9539 68C38.9763 68 9 52.7777 9 34C9 15.2223 38.9763 0 75.9539 0C112.931 0 142.908 15.2223 142.908 34Z" fill="#89591F"/>
<path d="M139.03 33.5C139.03 50.897 110.817 65 76.015 65C41.2128 65 13 50.897 13 33.5C13 16.103 41.2128 2 76.015 2C110.817 2 139.03 16.103 139.03 33.5Z" fill="#BB7B30"/>
<path d="M40 18C40 19.6569 38.6569 21 37 21C35.3431 21 34 19.6569 34 18C34 16.3431 35.3431 15 37 15C38.6569 15 40 16.3431 40 18Z" fill="#89591F"/>
<path d="M40 33C40 34.6569 38.6569 36 37 36C35.3431 36 34 34.6569 34 33C34 31.3431 35.3431 30 37 30C38.6569 30 40 31.3431 40 33Z" fill="#89591F"/>
<path d="M40 48C40 49.6569 38.6569 51 37 51C35.3431 51 34 49.6569 34 48C34 46.3431 35.3431 45 37 45C38.6569 45 40 46.3431 40 48Z" fill="#89591F"/>
<path d="M66 18C66 19.6569 64.6569 21 63 21C61.3431 21 60 19.6569 60 18C60 16.3431 61.3431 15 63 15C64.6569 15 66 16.3431 66 18Z" fill="#89591F"/>
<path d="M66 33C66 34.6569 64.6569 36 63 36C61.3431 36 60 34.6569 60 33C60 31.3431 61.3431 30 63 30C64.6569 30 66 31.3431 66 33Z" fill="#89591F"/>
<path d="M66 48C66 49.6569 64.6569 51 63 51C61.3431 51 60 49.6569 60 48C60 46.3431 61.3431 45 63 45C64.6569 45 66 46.3431 66 48Z" fill="#89591F"/>
<path d="M92 18C92 19.6569 90.6569 21 89 21C87.3431 21 86 19.6569 86 18C86 16.3431 87.3431 15 89 15C90.6569 15 92 16.3431 92 18Z" fill="#89591F"/>
<path d="M92 33C92 34.6569 90.6569 36 89 36C87.3431 36 86 34.6569 86 33C86 31.3431 87.3431 30 89 30C90.6569 30 92 31.3431 92 33Z" fill="#89591F"/>
<path d="M92 48C92 49.6569 90.6569 51 89 51C87.3431 51 86 49.6569 86 48C86 46.3431 87.3431 45 89 45C90.6569 45 92 46.3431 92 48Z" fill="#89591F"/>
<path d="M118 18C118 19.6569 116.657 21 115 21C113.343 21 112 19.6569 112 18C112 16.3431 113.343 15 115 15C116.657 15 118 16.3431 118 18Z" fill="#89591F"/>
<path d="M118 33C118 34.6569 116.657 36 115 36C113.343 36 112 34.6569 112 33C112 31.3431 113.343 30 115 30C116.657 30 118 31.3431 118 33Z" fill="#89591F"/>
<path d="M118 48C118 49.6569 116.657 51 115 51C113.343 51 112 49.6569 112 48C112 46.3431 113.343 45 115 45C116.657 45 118 46.3431 118 48Z" fill="#89591F"/>
</svg>
