<svg width="64" height="64" viewBox="0 0 64 64" fill="none" xmlns="http://www.w3.org/2000/svg">
<g clip-path="url(#clip0_25_2)">
<path d="M26.961 60.736C26.961 63.866 28.72 63.735 30.887 63.735C33.054 63.735 34.809 63.866 34.809 60.736C34.809 57.61 33.054 33.908 30.887 33.908C28.72 33.908 26.961 57.61 26.961 60.736Z" fill="#DDB185"/>
<path d="M53.37 50.971C46.36 38.834 39.36 26.702 32.35 14.564C31.713 13.462 30.052 13.462 29.416 14.564C22.416 26.702 15.406 38.834 8.39597 50.971C7.75097 52.085 8.56697 53.526 9.86297 53.526H51.903C53.196 53.526 54.016 52.085 53.37 50.971Z" fill="#0B7D70"/>
<path d="M53.37 43.805C46.36 33.317 39.36 22.832 32.35 12.344C31.713 11.393 30.052 11.393 29.416 12.344C22.416 22.832 15.406 33.316 8.39597 43.805C7.75097 44.768 8.56697 46.012 9.86297 46.012H51.903C53.196 46.012 54.016 44.768 53.37 43.805Z" fill="#2BB573"/>
<path d="M48.2 32.753C42.737 23.072 37.273 13.393 31.813 3.71299C31.315 2.83599 30.021 2.83599 29.526 3.71299C24.066 13.393 18.599 23.072 13.139 32.753C12.637 33.643 13.273 34.794 14.282 34.794H47.053C48.063 34.794 48.7 33.643 48.2 32.753Z" fill="#0B7D70"/>
<path d="M49.06 24.942L32.073 0.554006C31.557 -0.184994 30.217 -0.184994 29.7 0.554006C24.035 8.68301 18.375 16.812 12.713 24.942C12.189 25.689 12.854 26.656 13.898 26.656H47.874C48.918 26.656 49.581 25.689 49.06 24.942Z" fill="#04A69C"/>
</g>
<defs>
<clipPath id="clip0_25_2">
<rect width="64" height="64" fill="white"/>
</clipPath>
</defs>
</svg>
